# xmcd CD database file
#
# Track frame offsets:
#	150
#	12339
#	24207
#	36215
#	48058
#	59611
#	74566
#	95561
#	108410
#	116215
#	135531
#	153494
#	165073
#	175283
#	187412
#	201679
#	214642
#	236925
#	254422
#	276235
#	300860
#	321045
#
# Disc length: 4650 seconds
#
# Revision: 0
# Processed by: cddbd v1.5.2PL0 Copyright (c) Steve Scherf et al.
# Submitted via: CDex 1.70beta2
#
DISCID=41122816
DTITLE=Jazz Sélection - Jazz à la française
DYEAR=2007
DGENRE=Jazz
TTITLE0=Piano - Caravan
TTITLE1=Piano - Frenesi
TTITLE2=Piano - C'est si bon
TTITLE3=Piano - La chanson des rues
TTITLE4=Piano - In a sentimental mood
TTITLE5=Piano - 'Round about midnight
TTITLE6=Piano - Even mice dance
TTITLE7=Piano - Brazilian like
TTITLE8=Piano - Claude sait
TTITLE9=Piano - Autumn in Newfane
TTITLE10=Piano - Résonnance
TTITLE11=Piano - Bill's heart
TTITLE12=Piano - L'ile aux cygnes
TTITLE13=Legrand - Moulin-rouge
TTITLE14=Legrand - La vie en rose
TTITLE15=Legrand - I love Paris
TTITLE16=Legrand - Parlez-moi d'amour
TTITLE17=Legrand - Les parapluies de Cherbourg
TTITLE18=Legrand - Les moulins de mon coeur
TTITLE19=Legrand - Les demoiselles de Rochefort
TTITLE20=Legrand - La valse des lilas
TTITLE21=Legrand - Le petit journal
EXTD=YEAR: 2007
EXTT0=
EXTT1=
EXTT2=
EXTT3=
EXTT4=
EXTT5=
EXTT6=
EXTT7=
EXTT8=
EXTT9=
EXTT10=
EXTT11=
EXTT12=
EXTT13=
EXTT14=
EXTT15=
EXTT16=
EXTT17=
EXTT18=
EXTT19=
EXTT20=
EXTT21=
PLAYORDER=
